<svg xmlns="http://www.w3.org/2000/svg" viewBox="0 0 489.23 489.23"><defs><style>.cls-1{fill:none;stroke:#8f5c2a;stroke-miterlimit:10;stroke-width:32px;}</style></defs><g id="Layer_1" data-name="Layer 1"><path class="cls-1" d="M250,479.63A228.61,228.61,0,0,1,88.35,89.36a228.61,228.61,0,0,1,323.3,323.31A227.11,227.11,0,0,1,250,479.63Z" transform="translate(-5.39 -6.4)"/></g><g id="Layer_4" data-name="Layer 4"><rect x="275.93" y="259.04" width="86.73" height="28.62"/><path d="M216.78,157.31V343.4h46c32.53,0,61-19.86,74.56-49.35a92.83,92.83,0,0,0,7.93-28.63H374.9v.89a121.83,121.83,0,0,1-5.85,27.74A118.67,118.67,0,0,1,339,341.76c-20.85,20.1-47.9,31.17-76.17,31.17H187.26V127.78h75.56c28.28,0,55.33,11.08,76.19,31.19A118.76,118.76,0,0,1,369.18,207,121.92,121.92,0,0,1,375,234.93l.05.52v.22H345.34A92.28,92.28,0,0,0,337.55,207c-13.53-29.7-42.05-49.73-74.73-49.73Z" transform="translate(-5.39 -6.4)"/></g></svg>