<svg xmlns="http://www.w3.org/2000/svg" xml:space="preserve" id="logo" x="0" y="0" style="enable-background:new 0 0 495.9 495.9" version="1.1" viewBox="0 0 495.9 495.9"><style>.st1{fill:#8f5c2a}</style><circle id="Layer_1_1_" cx="248" cy="248" r="240" style="fill:none;stroke:#8f5c2a;stroke-width:16;stroke-miterlimit:10"/><g id="Layer_4"><g id="_120"><path d="M259 356.7h-58V139.1h58c50.5 0 92.2 40.7 97.5 92.8h8c-5.3-56.4-50.8-100.8-105.5-100.8h-66v233.7h66c54.8 0 100.1-44.4 105.5-100.8h-8c-5.4 52-47.1 92.7-97.5 92.7z" class="st1"/><path d="M356.4 264c-5.3 52.1-47 92.8-97.5 92.8H201V139.1h58c50.5 0 92.2 40.7 97.5 92.8h16.1C367.1 171 318.2 123.1 259 123.1h-74v249.7h74c59.3 0 108.2-47.9 113.5-108.8h-16.1z" class="st1"/></g><path d="M294.5 264h74.1v15h-74.1z" class="st1"/></g></svg>