<svg xmlns="http://www.w3.org/2000/svg" viewBox="0 0 489.23 489.23"><path d="M250 479.63A228.61 228.61 0 0 1 88.35 89.36a228.61 228.61 0 0 1 323.3 323.31A227.11 227.11 0 0 1 250 479.63Z" data-name="Layer 1" style="fill:none;stroke:#8f5c2a;stroke-miterlimit:10;stroke-width:32px" transform="translate(-5.39 -6.4)"/><g data-name="Layer 4" style="fill:#8f5c2a"><path d="M275.93 259.04h86.73v28.62h-86.73z"/><path d="M211.39 150.91V337h46c32.53 0 61-19.86 74.56-49.35a92.83 92.83 0 0 0 7.93-28.63h29.63v.89a121.83 121.83 0 0 1-5.85 27.74 118.67 118.67 0 0 1-30.05 47.71c-20.85 20.1-47.9 31.17-76.17 31.17h-75.57V121.38h75.56c28.28 0 55.33 11.08 76.19 31.19a118.76 118.76 0 0 1 30.17 48.03 121.92 121.92 0 0 1 5.82 27.93l.05.52v.22h-29.71a92.28 92.28 0 0 0-7.79-28.67c-13.53-29.7-42.05-49.73-74.73-49.73Z"/></g></svg>