<svg xmlns="http://www.w3.org/2000/svg" viewBox="0 0 492.1 492.1" id="logo"><defs><style>.cls-1{fill:none;stroke:#8f5c2a;stroke-width:23px;}.cls-1,.cls-2,.cls-3{stroke-miterlimit:10;}.cls-2{fill:#fff;stroke-width:5px;}.cls-2,.cls-3{stroke:#231f20;}.cls-3{stroke-width:8px;}</style></defs><g id="Layer_1" data-name="Layer 1"><circle class="cls-1" cx="246.05" cy="246.05" r="234.55"/></g><g id="Layer_4" data-name="Layer 4"><g id="_120" data-name="120"><path class="cls-2" d="M261,358.76H203.06V141.08H261c50.51,0,92.23,40.72,97.48,92.82h8C361.14,177.5,315.72,133.08,261,133.08H195.06V366.76H261c54.75,0,100.15-44.39,105.52-100.76h-8C353.15,318.08,311.44,358.76,261,358.76Z" transform="translate(-3.95 -4.97)"/><path class="cls-3" d="M358.43,266c-5.28,52.08-47,92.76-97.48,92.76H203.06V141.08H261c50.51,0,92.23,40.72,97.48,92.82h16.08C369.15,173,320.27,125.08,261,125.08H187.06V374.76H261c59.3,0,108.17-47.85,113.55-108.76Z" transform="translate(-3.95 -4.97)"/></g><rect class="cls-3" x="292.55" y="261.03" width="74.13" height="15.02"/></g></svg>