<?xml version="1.0" standalone="no"?>
<!DOCTYPE svg PUBLIC "-//W3C//DTD SVG 1.1//EN" "http://www.w3.org/Graphics/SVG/1.1/DTD/svg11.dtd" >
<svg xmlns="http://www.w3.org/2000/svg">
<defs>
  <font id="dg" horiz-adv-x="512">
    <font-face font-family="dg"
      units-per-em="512" ascent="512"
      descent="0" />
    <missing-glyph horiz-adv-x="0" />
    <glyph glyph-name="apps"
      unicode="&#xEA01;"
      horiz-adv-x="24" d="M10 11H3A1 1 0 0 1 2 10V3A1 1 0 0 1 3 2H10A1 1 0 0 1 11 3V10A1 1 0 0 1 10 11zM9 4H4V9H9zM21 22H14A1 1 0 0 1 13 21V14A1 1 0 0 1 14 13H21A1 1 0 0 1 22 14V21A1 1 0 0 1 21 22zM20 15H15V20H20zM21 11H14A1 1 0 0 1 13 10V3A1 1 0 0 1 14 2H21A1 1 0 0 1 22 3V10A1 1 0 0 1 21 11zM20 4H15V9H20zM10 22H3A1 1 0 0 1 2 21V14A1 1 0 0 1 3 13H10A1 1 0 0 1 11 14V21A1 1 0 0 1 10 22zM9 15H4V20H9z" />
    <glyph glyph-name="arrow-down-left"
      unicode="&#xEA02;"
      horiz-adv-x="24" d="M17 8H9.41L17.71 16.29A1 1 0 1 1 16.29 17.71L8 9.41V17A1 1 0 0 1 6 17V7A1 1 0 0 1 6.08 6.62A1 1 0 0 1 6.62 6.08A1 1 0 0 1 7 6H17A1 1 0 0 1 17 8z" />
    <glyph glyph-name="arrow-down-right"
      unicode="&#xEA03;"
      horiz-adv-x="24" d="M17 18A1 1 0 0 1 16 17V9.41L7.71 17.71A1 1 0 0 1 6.29 16.29L14.59 8H7A1 1 0 0 1 7 6H17A1 1 0 0 1 17.38 6.08A1 1 0 0 1 17.92 6.62A1 1 0 0 1 18 7V17A1 1 0 0 1 17 18z" />
    <glyph glyph-name="arrow-down"
      unicode="&#xEA04;"
      horiz-adv-x="24" d="M17.71 12.71A1 1 0 0 1 16.29 12.71L13 9.41V17A1 1 0 0 1 11 17V9.41L7.71 12.71A1 1 0 0 1 6.29 11.29L11.29 6.29A1 1 0 0 1 11.62 6.08A0.94 0.94 0 0 1 12.38 6.08A1 1 0 0 1 12.71 6.29L17.71 11.29A1 1 0 0 1 17.71 12.71z" />
    <glyph glyph-name="arrow-left"
      unicode="&#xEA05;"
      horiz-adv-x="24" d="M17 13H9.41L12.71 16.29A1 1 0 1 1 11.29 17.71L6.29 12.71A1 1 0 0 1 6.08 12.38A1 1 0 0 1 6.08 11.62A1 1 0 0 1 6.29 11.29L11.29 6.29A1 1 0 0 1 12.71 6.29A1 1 0 0 1 12.71 7.71L9.41 11H17A1 1 0 0 1 17 13z" />
    <glyph glyph-name="arrow-right"
      unicode="&#xEA06;"
      horiz-adv-x="24" d="M17.92 12.38A1 1 0 0 1 17.71 12.71L12.71 17.71A1 1 0 0 1 11.29 16.29L14.59 13H7A1 1 0 0 1 7 11H14.59L11.29 7.71A1 1 0 0 1 11.29 6.29A1 1 0 0 1 12.71 6.29L17.71 11.29A1 1 0 0 1 17.92 11.62A1 1 0 0 1 17.92 12.38z" />
    <glyph glyph-name="arrow-up-left"
      unicode="&#xEA07;"
      horiz-adv-x="24" d="M9.41 16H17A1 1 0 0 1 17 18H7A1 1 0 0 1 6.62 17.92A1 1 0 0 1 6.08 17.38A1 1 0 0 1 6 17V7A1 1 0 0 1 8 7V14.59L16.29 6.29A1 1 0 0 1 17.71 6.29A1 1 0 0 1 17.71 7.71z" />
    <glyph glyph-name="arrow-up-right"
      unicode="&#xEA08;"
      horiz-adv-x="24" d="M17.92 17.38A1 1 0 0 1 17.38 17.92A1 1 0 0 1 17 18H7A1 1 0 0 1 7 16H14.59L6.29 7.71A1 1 0 0 1 6.29 6.29A1 1 0 0 1 7.71 6.29L16 14.59V7A1 1 0 0 1 18 7V17A1 1 0 0 1 17.92 17.38z" />
    <glyph glyph-name="arrow-up"
      unicode="&#xEA09;"
      horiz-adv-x="24" d="M17.71 12.71L12.71 17.71A1 1 0 0 1 12.38 17.92A1 1 0 0 1 11.62 17.92A1 1 0 0 1 11.29 17.71L6.29 12.71A1 1 0 0 1 7.71 11.29L11 14.59V7A1 1 0 0 1 13 7V14.59L16.29 11.29A1 1 0 0 1 17.71 11.29A1 1 0 0 1 17.71 12.71z" />
    <glyph glyph-name="arrow"
      unicode="&#xEA0A;"
      horiz-adv-x="24" d="M9.71 17.71A1 1 0 0 1 8.29 17.71L3.29 12.71A1 1 0 0 1 3.29 11.29L8.29 6.29A1 1 0 0 1 9.71 6.29A1 1 0 0 1 9.71 7.71L5.41 12L9.71 16.29A1 1 0 0 1 9.71 17.71zM20.71 12.71L15.71 17.71A1 1 0 0 1 14.29 16.29L18.59 12L14.29 7.71A1 1 0 0 1 14.29 6.29A1 1 0 0 1 15.71 6.29L20.71 11.29A1 1 0 0 1 20.71 12.71z" />
    <glyph glyph-name="award"
      unicode="&#xEA0B;"
      horiz-adv-x="24" d="M5 15.001C5 13.099 5.765 11.374 7 10.111V3A0.998 0.998 0 0 1 8.447 2.105L12 3.882L15.553 2.106A0.992 0.992 0 0 1 16.525 2.149C16.82 2.332 17 2.653 17 3V10.11A6.976 6.976 0 0 1 19 15.001C19 18.86 15.86 22 12 22S5 18.86 5 15.001zM12.447 5.895A1 1 0 0 1 11.552 5.895L9 4.618V8.685C9.911 8.251 10.926 8 12 8S14.089 8.25 15 8.685V4.619L12.447 5.895zM12 20C14.756 20 17 17.758 17 15.001A5.006 5.006 0 0 0 12 10C9.243 10 7 12.243 7 15.001A5.005 5.005 0 0 0 12 20z" />
    <glyph glyph-name="badge-check"
      unicode="&#xEA0C;"
      horiz-adv-x="24" d="M4.035 8.521A3.976 3.976 0 0 1 4 8C4 5.622 6.138 3.716 8.521 4.036C9.214 2.802 10.534 2 12 2S14.786 2.802 15.479 4.036C17.857 3.716 20 5.622 20 8C20 8.173 19.988 8.347 19.965 8.521C21.198 9.214 22 10.535 22 12S21.198 14.786 19.965 15.479C19.988 15.653 20 15.827 20 16C20 18.378 17.857 20.288 15.479 19.964C14.786 21.198 13.466 22 12 22S9.214 21.198 8.521 19.964C6.138 20.288 4 18.378 4 16C4 15.827 4.012 15.653 4.035 15.479C2.802 14.786 2 13.465 2 12S2.802 9.214 4.035 8.521zM5.477 13.924L6.579 14.217L6.145 15.27A1.932 1.932 0 0 0 6 16C6 17.103 6.897 18 8 18C8.247 18 8.499 17.95 8.73 17.855L9.784 17.421L10.077 18.523A1.99 1.99 0 0 0 13.923 18.523L14.216 17.421L15.27 17.855C15.501 17.95 15.753 18 16 18C17.103 18 18 17.103 18 16C18 15.753 17.95 15.5 17.855 15.27L17.421 14.217L18.523 13.924A1.993 1.993 0 0 0 18.523 10.076L17.421 9.783L17.855 8.73C17.95 8.5 18 8.247 18 8C18 6.897 17.103 6 16 6C15.753 6 15.501 6.05 15.27 6.145L14.216 6.579L13.923 5.477A1.99 1.99 0 0 0 10.077 5.477L9.784 6.579L8.73 6.145A1.935 1.935 0 0 0 8 6C6.897 6 6 6.897 6 8C6 8.247 6.05 8.5 6.145 8.73L6.579 9.783L5.477 10.076A1.993 1.993 0 0 0 5.477 13.924zM15.742 13.29L14.334 14.71L11.003 11.411L9.707 12.707L8.293 11.293L10.997 8.589z" />
    <glyph glyph-name="brackets-curly"
      unicode="&#xEA0D;"
      horiz-adv-x="24" d="M6 18A2 2 0 0 0 8 20A1 1 0 0 1 8 22A4 4 0 0 1 4 18V15A2 2 0 0 0 2 13A1 1 0 0 1 2 11A2 2 0 0 0 4 9V6A4 4 0 0 1 8 2A1 1 0 0 1 8 4A2 2 0 0 0 6 6V9A4 4 0 0 1 4.62 12A4 4 0 0 1 6 15zM22 13A2 2 0 0 0 20 15V18A4 4 0 0 1 16 22A1 1 0 0 1 16 20A2 2 0 0 0 18 18V15A4 4 0 0 1 19.38 12A4 4 0 0 1 18 9V6A2 2 0 0 0 16 4A1 1 0 0 1 16 2A4 4 0 0 1 20 6V9A2 2 0 0 0 22 11A1 1 0 0 1 22 13z" />
    <glyph glyph-name="briefcase-alt"
      unicode="&#xEA0E;"
      horiz-adv-x="24" d="M19 17.5H16V18.5A3 3 0 0 1 13 21.5H11A3 3 0 0 1 8 18.5V17.5H5A3 3 0 0 1 2 14.5V5.5A3 3 0 0 1 5 2.5H19A3 3 0 0 1 22 5.5V14.5A3 3 0 0 1 19 17.5zM10 18.5A1 1 0 0 0 11 19.5H13A1 1 0 0 0 14 18.5V17.5H10zM20 5.5A1 1 0 0 0 19 4.5H5A1 1 0 0 0 4 5.5V11A21.27 21.27 0 0 1 7 10.06V9.47A1 1 0 0 1 9 9.47V9.68A23 23 0 0 1 12 9.47A23 23 0 0 1 15 9.68V9.47A1 1 0 0 1 17 9.47V10.06A21.27 21.27 0 0 1 20 11zM20 13.19A20.39 20.39 0 0 0 17 12.19V12.5A1 1 0 0 1 15 12.5V11.76A20.11 20.11 0 0 0 9 11.76V12.5A1 1 0 0 1 7 12.5V12.17A20.39 20.39 0 0 0 4 13.17V14.5A1 1 0 0 0 5 15.5H19A1 1 0 0 0 20 14.5z" />
    <glyph glyph-name="calendar-alt"
      unicode="&#xEA0F;"
      horiz-adv-x="24" d="M12 5A1 1 0 1 1 11 6A1 1 0 0 1 12 5zM17 5A1 1 0 1 1 16 6A1 1 0 0 1 17 5zM17 9A1 1 0 1 1 16 10A1 1 0 0 1 17 9zM12 9A1 1 0 1 1 11 10A1 1 0 0 1 12 9zM19 21H18V22A1 1 0 0 1 16 22V21H8V22A1 1 0 0 1 6 22V21H5A3 3 0 0 1 2 18V4A3 3 0 0 1 5 1H19A3 3 0 0 1 22 4V18A3 3 0 0 1 19 21zM20 4A1 1 0 0 0 19 3H5A1 1 0 0 0 4 4V13H20zM20 15H4V18A1 1 0 0 0 5 19H6V18A1 1 0 0 1 8 18V19H16V18A1 1 0 0 1 18 18V19H19A1 1 0 0 0 20 18zM7 9A1 1 0 1 1 6 10A1 1 0 0 1 7 9zM7 5A1 1 0 1 1 6 6A1 1 0 0 1 7 5z" />
    <glyph glyph-name="check-circle"
      unicode="&#xEA10;"
      horiz-adv-x="24" d="M14.72 15.21L10.43 10.91L8.78 12.56A1 1 0 1 1 7.37 11.15L9.72 8.79A1 1 0 0 1 10.43 8.5A1 1 0 0 1 11.13 8.79L16.13 13.79A1 1 0 0 1 16.13 15.21A1 1 0 0 1 14.72 15.21zM12 22A10 10 0 1 1 22 12A10 10 0 0 1 12 22zM12 4A8 8 0 1 0 20 12A8 8 0 0 0 12 4z" />
    <glyph glyph-name="ellipsis-h"
      unicode="&#xEA11;"
      horiz-adv-x="24" d="M12 14A2 2 0 1 1 14 12A2 2 0 0 1 12 14zM5 14A2 2 0 1 1 7 12A2 2 0 0 1 5 14zM19 14A2 2 0 1 1 21 12A2 2 0 0 1 19 14z" />
    <glyph glyph-name="ellipsis-v"
      unicode="&#xEA12;"
      horiz-adv-x="24" d="M12 17A2 2 0 1 1 10 19A2 2 0 0 1 12 17zM12 7A2 2 0 1 1 14 5A2 2 0 0 1 12 7zM12 14A2 2 0 1 1 14 12A2 2 0 0 1 12 14z" />
    <glyph glyph-name="estate"
      unicode="&#xEA13;"
      horiz-adv-x="24" d="M20 16H20L14 21.26A3 3 0 0 1 10 21.26L4 16A3 3 0 0 1 3 13.74V5A3 3 0 0 1 6 2H18A3 3 0 0 1 21 5V13.75A3 3 0 0 1 20 16zM14 4H10V9A1 1 0 0 0 11 10H13A1 1 0 0 0 14 9zM19 5A1 1 0 0 0 18 4H16V9A3 3 0 0 1 13 12H11A3 3 0 0 1 8 9V4H6A1 1 0 0 0 5 5V13.75A1 1 0 0 0 5.34 14.5L11.34 19.75A1 1 0 0 0 12.66 19.75L18.66 14.5A1 1 0 0 0 19 13.75z" />
    <glyph glyph-name="export"
      unicode="&#xEA14;"
      horiz-adv-x="24" d="M8.71 16.29L11 18.59V9A1 1 0 0 1 13 9V18.59L15.29 16.29A1 1 0 0 1 16.71 16.29A1 1 0 0 1 16.71 17.71L12.71 21.71A1 1 0 0 1 12.38 21.92A1 1 0 0 1 11.62 21.92A1 1 0 0 1 11.29 21.71L7.29 17.71A1 1 0 1 1 8.71 16.29zM21 10A1 1 0 0 1 20 9V5A1 1 0 0 0 19 4H5A1 1 0 0 0 4 5V9A1 1 0 0 1 2 9V5A3 3 0 0 1 5 2H19A3 3 0 0 1 22 5V9A1 1 0 0 1 21 10z" />
    <glyph glyph-name="facebook-f"
      unicode="&#xEA15;"
      horiz-adv-x="24" d="M15.12 18.68H17V21.86A26.11 26.11 0 0 1 14.26 22C11.54 22 9.68 20.34 9.68 17.3V14.68H6.61V11.12H9.68V2H13.36V11.12H16.42L16.88 14.68H13.36V16.95C13.36 18 13.64 18.68 15.12 18.68z" />
    <glyph glyph-name="facebook"
      unicode="&#xEA16;"
      horiz-adv-x="24" d="M13.397 3.003V11.199H16.162L16.573 14.408H13.397V16.452C13.397 17.378 13.655 18.012 14.984 18.012H16.668V20.873A22.336 22.336 0 0 1 14.201 21C11.757 21 10.079 19.508 10.079 16.769V14.414H7.332V11.205H10.085V3.003H13.397z" />
    <glyph glyph-name="file-alt"
      unicode="&#xEA17;"
      horiz-adv-x="24" d="M9 14H10A1 1 0 0 1 10 16H9A1 1 0 0 1 9 14zM9 12A1 1 0 0 1 9 10H15A1 1 0 0 1 15 12zM20 15.06A1.31 1.31 0 0 1 19.94 15.33L19.94 15.42A1.07 1.07 0 0 1 19.75 15.7H19.75L13.75 21.7H13.75A1.07 1.07 0 0 1 13.47 21.89A0.32 0.32 0 0 1 13.38 21.89A0.88 0.88 0 0 1 13.05 22H7A3 3 0 0 1 4 19V5A3 3 0 0 1 7 2H17A3 3 0 0 1 20 5V15S20 15 20 15.06zM14 18.59L16.59 16H15A1 1 0 0 0 14 17zM18 5A1 1 0 0 0 17 4H7A1 1 0 0 0 6 5V19A1 1 0 0 0 7 20H12V17A3 3 0 0 1 15 14H18zM15 8H9A1 1 0 0 1 9 6H15A1 1 0 0 1 15 8z" />
    <glyph glyph-name="files"
      unicode="&#xEA18;"
      horiz-adv-x="24" d="M15.25 1.25H9.25C3.82 1.25 1.5 3.57 1.5 9V15C1.5 20.43 3.82 22.75 9.25 22.75H14.25C14.66 22.75 15 22.41 15 22S14.66 21.25 14.25 21.25H9.25C4.64 21.25 3 19.61 3 15V9C3 4.39 4.64 2.75 9.25 2.75H15.25C19.86 2.75 21.5 4.39 21.5 9V14C21.5 14.41 21.84 14.75 22.25 14.75S23 14.41 23 14V9C23 3.57 20.68 1.25 15.25 1.25zM22.25 13.25H18.25C14.83 13.25 13.5 14.58 13.5 18V22C13.5 22.3 13.68 22.58 13.96 22.69C14.24 22.81 14.56 22.74 14.78 22.53L22.78 14.53A0.751 0.751 0 0 0 22.25 13.25zM15 20.19V18C15 15.42 15.67 14.75 18.25 14.75H20.44L15 20.19zM13.25 10.25H7.25C6.84 10.25 6.5 10.59 6.5 11S6.84 11.75 7.25 11.75H13.25C13.66 11.75 14 11.41 14 11S13.66 10.25 13.25 10.25zM11.25 6.25H7.25C6.84 6.25 6.5 6.59 6.5 7S6.84 7.75 7.25 7.75H11.25C11.66 7.75 12 7.41 12 7S11.66 6.25 11.25 6.25z" />
    <glyph glyph-name="github-alt"
      unicode="&#xEA19;"
      horiz-adv-x="24" d="M10.07031 3.49709A1.00008 1.00008 0 0 1 8.88916 4.48049C7.58008 4.24025 5.92725 4.20412 5.48779 5.43849A5.70754 5.70754 0 0 1 3.65088 7.85349A1.20073 1.20073 0 0 0 3.48438 7.96287A1 1 0 0 1 2.55371 8.60838H2.54883A0.99965 0.99965 0 0 1 1.54883 7.61326C1.54492 6.79783 2.35983 6.27537 2.69043 6.09861A4.4408 4.4408 0 0 0 3.61426 4.73924C3.97852 3.7158 5.03711 2.16307 8.08008 2.36324C8.08108 2.32808 8.08203 2.29488 8.08252 2.26461L8.08691 1.99703A1 1 0 0 1 10.08691 1.99703L10.08203 2.31539C10.07715 2.5049 10.07031 2.77932 10.07031 3.49709zM20.73731 18.62309C20.76905 18.74809 20.80031 18.88676 20.82765 19.04301A6.27792 6.27792 0 0 1 20.41944 22.33601A1.002 1.002 0 0 1 19.80372 22.91608C19.44772 23.0362 18.13331 23.27253 15.61964 21.66608A13.86918 13.86918 0 0 1 9.26564 21.66608C6.76221 23.249 5.45459 23.0342 5.10205 22.92092A0.99744 0.99744 0 0 1 4.4707 22.33692A6.3003 6.3003 0 0 1 4.06738 18.98048C4.0918 18.85255 4.11816 18.73438 4.14551 18.62599A6.26928 6.26928 0 0 1 2.89014 14.79689A8.42168 8.42168 0 0 1 2.93262 13.87502C3.26662 9.27248 6.26662 7.89064 8.35693 7.41602C8.31348 7.29102 8.27393 7.15724 8.23877 7.01563A1.00023 1.00023 0 0 1 10.18115 6.53712A1.6784 1.6784 0 0 0 10.64893 7.41505A0.99947 0.99947 0 0 1 10.10303 9.16017C6.64893 9.5547 5.14941 10.96192 4.92383 14.0586A6.61076 6.61076 0 0 0 4.89014 14.79688A4.25769 4.25769 0 0 0 5.80957 17.50977A3.022 3.022 0 0 0 6.00537 17.74122A0.99988 0.99988 0 0 1 6.19337 18.76563A3.3876 3.3876 0 0 0 6.0381 19.3213A4.09356 4.09356 0 0 0 6.1167 20.93654A7.54263 7.54263 0 0 0 8.5317 19.75686A1.00877 1.00877 0 0 1 9.35934 19.62404A11.77716 11.77716 0 0 0 15.53219 19.62304A1.00549 1.00549 0 0 1 16.36275 19.76073A7.572 7.572 0 0 0 18.76803 20.95116A4.03977 4.03977 0 0 0 18.85543 19.37304A3.205 3.205 0 0 0 18.68648 18.76561A0.9999 0.9999 0 0 1 18.87448 17.7412C18.95163 17.65429 19.02878 17.56054 19.09811 17.47265A4.12186 4.12186 0 0 0 20 14.79689A7.03888 7.03888 0 0 0 19.9624 14.01955C19.74219 10.96389 18.23682 9.55568 14.7666 9.16018A1 1 0 0 1 14.22119 7.41408A1.63079 1.63079 0 0 0 14.6875 6.50588A3.06079 3.06079 0 0 0 14.77979 5.68654V3.35254C14.77 2.7051 14.77 2.21975 14.77 1.99709A1 1 0 1 1 16.77 1.99709C16.77 2.21389 16.77 2.68947 16.77977 3.33693V5.68654A4.8815 4.8815 0 0 1 16.62498 6.99807A4.25638 4.25638 0 0 1 16.50877 7.41407A6.51258 6.51258 0 0 1 21.95408 13.8379A8.69677 8.69677 0 0 1 22 14.79689A6.13062 6.13062 0 0 1 20.7373 18.62307z" />
    <glyph glyph-name="graduation-cap"
      unicode="&#xEA1A;"
      horiz-adv-x="24" d="M21.49 13.81L20.49 14.36H20.49L11.49 19.36L11.38 19.36A1.06 1.06 0 0 1 11.19 19.42L11 19.42L10.82 19.42A1.17 1.17 0 0 1 10.62 19.36L10.51 19.36L1.51 14.36A1 1 0 0 1 1.51 12.62L4 11.24V6.5A3 3 0 0 1 7 3.5H15A3 3 0 0 1 18 6.5V11.24L20 12.36V9.5A1 1 0 0 1 22 9.5V12.94A1 1 0 0 1 21.49 13.81zM16 6.5A1 1 0 0 0 15 5.5H7A1 1 0 0 0 6 6.5V10.13L10.51 7.63L10.66 7.57L10.75 7.57A1 1 0 0 1 11 7.57H11A1 1 0 0 1 11.25 7.57L11.34 7.57A0.47 0.47 0 0 1 11.49 7.63L16 10.13zM11 9.64L4.06 13.5L11 17.36L17.94 13.5z" />
    <glyph glyph-name="instagram"
      unicode="&#xEA1B;"
      horiz-adv-x="24" d="M11.999 16.623A4.623 4.623 0 1 1 11.999 7.375A4.623 4.623 0 0 1 11.999 16.623zM11.999 8.996A3.004 3.004 0 1 0 11.999 15.004A3.004 3.004 0 0 0 11.999 8.996zM15.728 16.793A1.078 1.078 0 0 1 17.884 16.793A1.078 1.078 0 0 1 15.728 16.793M20.533 17.889A4.605 4.605 0 0 1 17.9 20.521A6.606 6.606 0 0 1 15.714 20.941C14.751 20.983 14.446 20.995 12.004 20.995S9.249 20.995 8.294 20.941A6.554 6.554 0 0 1 6.11 20.521A4.6 4.6 0 0 1 3.477 17.889A6.585 6.585 0 0 1 3.058 15.703C3.015 14.741 3.002 14.436 3.002 11.993C3.002 9.551 3.002 9.24 3.058 8.283C3.073 7.535 3.214 6.797 3.477 6.096A4.61 4.61 0 0 1 6.111 3.464A6.584 6.584 0 0 1 8.296 3.014C9.259 2.972 9.564 2.959 12.006 2.959S14.761 2.959 15.716 3.014A6.615 6.615 0 0 1 17.902 3.433A4.613 4.613 0 0 1 20.535 6.066C20.798 6.766 20.939 7.504 20.954 8.252C20.997 9.214 21.01 9.519 21.01 11.962S21.01 14.715 20.954 15.672A6.581 6.581 0 0 1 20.533 17.889zM19.315 8.357A5.043 5.043 0 0 0 19.004 6.669A2.987 2.987 0 0 0 17.292 4.958A4.985 4.985 0 0 0 15.622 4.647C14.672 4.603 14.404 4.592 11.968 4.592C9.53 4.592 9.281 4.592 8.313 4.647A4.96 4.96 0 0 0 6.644 4.958A2.985 2.985 0 0 0 4.925 6.669A5.08 5.08 0 0 0 4.614 8.338C4.571 9.288 4.561 9.556 4.561 11.992C4.561 14.429 4.561 14.678 4.614 15.647A5.038 5.038 0 0 0 4.925 17.334C5.23 18.123 5.855 18.744 6.644 19.046A5.01 5.01 0 0 0 8.313 19.357C9.264 19.4 9.531 19.412 11.968 19.412S14.655 19.412 15.622 19.357A4.96 4.96 0 0 0 17.292 19.046A2.991 2.991 0 0 0 19.004 17.334A5.08 5.08 0 0 0 19.315 15.665C19.358 14.714 19.369 14.447 19.369 12.01C19.369 9.574 19.369 9.312 19.326 8.356H19.315z" />
    <glyph glyph-name="knowledge-sharing"
      unicode="&#xEA1C;"
      horiz-adv-x="48" d="M18.5 44C17.136406 44 16 42.8635942 16 41.5L16 31.5C16 30.136406 17.136406 29 18.5 29L24.5 29C24.586399 29 24.666535 28.982235 24.748047 28.96875C25.120408 27.827396 26.182682 27 27.449219 27C28.710478 27 29.768448 27.821098 30.144531 28.955078C30.257961 28.982278 30.376178 29 30.5 29L36.5 29C37.863594 29 39 30.136406 39 31.5L39 41.5C39 42.8635942 37.863594 44 36.5 44L30.5 44C29.34203 44 28.301263 43.5250584 27.5 42.7949219C26.698737 43.5250584 25.65797 44 24.5 44L18.5 44zM19 41L24.5 41C25.346499 41 26 40.3464991 26 39.5L26 31.617188C25.516904 31.794239 25.040679 32 24.5 32L19 32L19 41zM30.5 41L36 41L36 32L30.5 32C29.959321 32 29.483096 31.794239 29 31.617188L29 39.5C29 40.3464991 29.653501 41 30.5 41zM41.613281 26.980469C40.493082 26.970769 39.429184 26.526721 38.484375 25.824219C37.470126 25.070757 34.418425 22.791958 31.777344 20.820312C31.204622 22.648492 29.505924 24 27.5 24L23.107422 24C20.296203 24 18.985532 24.227774 17.859375 24.466797C16.733218 24.70582 15.646783 25 13.826172 25C9.9413941 25 7.0123317 22.507014 5.09375 20.208984C3.1751683 17.910955 2.1347656 15.615234 2.1347656 15.615234A1.5002787 1.5002787 0 1 1 4.8652344 14.371094C4.8652344 14.371094 5.7643161 16.330186 7.3964844 18.285156C9.0286527 20.240127 11.25995 22 13.826172 22C15.347561 22 16.006735 21.79418 17.236328 21.533203C18.465921 21.272226 20.123641 21 23.107422 21L27.5 21C28.346499 21 29 20.346499 29 19.5C29 19.030501 28.794195 18.625704 28.470703 18.353516C28.470416 18.353301 28.429688 18.322266 28.429688 18.322266A1.5001988 1.5001988 0 0 1 28.345703 18.251953A1.5001988 1.5001988 0 0 1 28.34375 18.25C28.105295 18.091387 27.816466 18 27.5 18L20.5 18A1.50015 1.50015 0 1 1 20.5 15L27.5 15C28.440637 15 29.315307 15.298549 30.041016 15.800781C30.042186 15.801591 30.043753 15.801924 30.044922 15.802734A1.5001988 1.5001988 0 0 1 30.224609 15.917969C30.224609 15.917969 38.775959 22.303574 40.273438 23.416016A1.50015 1.50015 0 0 1 40.273438 23.417969C40.837627 23.837466 41.309824 23.977619 41.640625 23.980469C41.971426 23.983369 42.218287 23.903099 42.560547 23.560547C43.150922 22.970676 43.147391 22.064898 42.572266 21.466797C37.217133 16.963803 33.848465 13.963114 31.623047 12.205078C29.369881 10.425076 28.424996 10 27.5 10C23.847885 10 19.80067 11 15.5 11C13 11 11.242781 9.656391 10.300781 8.400391C9.3587815 7.144391 9.0449219 5.863281 9.0449219 5.863281A1.50015 1.50015 0 1 1 11.955078 5.136719C11.955078 5.136719 12.141219 5.855609 12.699219 6.599609C13.257219 7.343609 14 8 15.5 8C19.30733 8 23.336115 7 27.5 7C29.402004 7 31.084837 7.955565 33.482422 9.849609C35.849764 11.719762 39.175413 14.69009 44.498047 19.166016A1.50015 1.50015 0 0 1 44.681641 19.318359C44.688541 19.325259 44.690436 19.334857 44.697266 19.341797L44.701172 19.337891L44.753906 19.392578A1.50015 1.50015 0 0 1 45.083984 19.925781C46.330485 21.678208 46.248887 24.115731 44.681641 25.681641C43.8529 26.511089 42.73348 26.990119 41.613281 26.980469z" />
    <glyph glyph-name="linkedin-alt"
      unicode="&#xEA1D;"
      horiz-adv-x="24" d="M17.5 15.001A5.41868 5.41868 0 0 1 14.93457 14.35647A0.99918 0.99918 0 0 1 14 15.001H10A0.99943 0.99943 0 0 1 9 14.001V2.001A0.99942 0.99942 0 0 1 10 1.001H14A0.99942 0.99942 0 0 1 15 2.001V7.501A1 1 0 1 0 17 7.501V2.001A0.99942 0.99942 0 0 1 18 1.001H22A0.99942 0.99942 0 0 1 23 2.001V9.501A5.50685 5.50685 0 0 1 17.5 15.001zM21 3.001H19V7.501A3 3 0 1 1 13 7.501V3.001H11V13.001H13V12.29787A1.00048 1.00048 0 0 1 14.78125 11.67287A3.48258 3.48258 0 0 0 21 9.501zM7 15.001H3A0.99943 0.99943 0 0 1 2 14.001V2.001A0.99942 0.99942 0 0 1 3 1.001H7A0.99942 0.99942 0 0 1 8 2.001V14.001A0.99943 0.99943 0 0 1 7 15.001zM6 3.001H4V13.001H6zM5.01465 22.458A3.23283 3.23283 0 1 1 4.958 16.001H4.98632A3.23341 3.23341 0 1 1 5.01464 22.458zM4.98633 18.001H4.958A1.22193 1.22193 0 0 0 3.58887 19.22949C3.58887 19.97559 4.14844 20.45801 5.01465 20.45801A1.2335 1.2335 0 0 0 6.41113 19.22949C6.41113 18.4834 5.85156 18.001 4.98633 18.001z" />
    <glyph glyph-name="logo"
      unicode="&#xEA1E;"
      horiz-adv-x="18" d="M9 18A9 9 0 1 1 18 9A9 9 0 0 1 9 18zM9.05 1A7.88 7.88 0 1 0 16.86 8.88A7.84 7.84 0 0 0 9.05 1zM13.4 10.65A4.41 4.41 0 0 1 12.3 12.42A4 4 0 0 1 9.51 13.58H6.74V4.51H9.51A4 4 0 0 1 12.3 5.66A4.46 4.46 0 0 1 13.61 8.45H10.18V7.4H12.24A3 3 0 0 0 9.51 5.57H7.82V12.48H9.51A3 3 0 0 0 12.24 10.65A3.47 3.47 0 0 0 12.53 9.59H13.62A4.57 4.57 0 0 1 13.4 10.65z" />
    <glyph glyph-name="magnifying-glass"
      unicode="&#xEA1F;"
      horiz-adv-x="512" d="M504.969 40.969L370.959 174.977C399.084 210.453 416 255.215 416 304C416 418.875 322.875 512 208 512S0 418.875 0 304S93.125 96 208 96C256.7850000000001 96 301.549 112.914 337.021 141.039L471.031 7.031C475.719 2.344 481.859 0 488 0S500.281 2.344 504.969 7.031C514.344 16.406 514.344 31.594 504.969 40.969zM48 304C48 392.223 119.775 464 208 464S368 392.223 368 304S296.225 144 208 144S48 215.777 48 304z" />
    <glyph glyph-name="mail-send"
      unicode="&#xEA20;"
      horiz-adv-x="24" d="M20 20H6C4.897 20 4 19.103 4 18V13H6V16L12.4 11.2A1.001 1.001 0 0 1 13.6 11.2L20 16V7H12V5H20C21.103 5 22 5.897 22 7V18C22 19.103 21.103 20 20 20zM13 13.25L6.666 18H19.334L13 13.25zM2 12H9V10H2zM4 9H10V7H4zM7 6H11V4H7z" />
    <glyph glyph-name="message"
      unicode="&#xEA21;"
      horiz-adv-x="24" d="M20.34 14.68L6.34 21.68A3 3 0 0 1 2.26 17.78L4.66 12.41H4.66A1.06 1.06 0 0 0 4.66 11.59L2.26 6.22A3 3 0 0 1 5 2A3.14 3.14 0 0 1 6.35 2.32L20.35 9.32A3 3 0 0 1 20.35 14.68zM19.45 11.11L5.45 4.11A1 1 0 0 0 4.1 5.41L6.49 10.78A2 2 0 0 1 6.57 11H13.46A1 1 0 0 1 13.46 13H6.57A2 2 0 0 1 6.49 13.22L4.1 18.59A1 1 0 0 0 5.45 19.89L19.45 12.89A1 1 0 0 0 19.45 11.11z" />
    <glyph glyph-name="messenger"
      unicode="&#xEA22;"
      horiz-adv-x="24" d="M12 21C7.08 21 3.09 17.271 3.09 12.668C3.09 10.052 4.381 7.716 6.401 6.189V3L9.442 4.687C10.253 4.459 11.11 4.337 12.001 4.337C16.921 4.337 20.911 8.067 20.911 12.668C20.91 17.271 16.92 21 12 21zM12.938 9.828L10.633 12.222L6.195 9.768L11.06 14.931L13.365 12.536L17.804 14.991L12.938 9.828z" />
    <glyph glyph-name="phone"
      unicode="&#xEA23;"
      horiz-adv-x="24" d="M17.707 11.707A0.999 0.999 0 0 1 16.293 11.707L14.699 10.113C13.96 10.333 12.581 10.833 11.707 11.707S10.333 13.96 10.113 14.699L11.707 16.293A0.999 0.999 0 0 1 11.707 17.707L7.707 21.707A0.999 0.999 0 0 1 6.293 21.707L3.581 18.995C3.201 18.615 2.987 18.093 2.995 17.56C3.018 16.136 3.395 11.19 7.293 7.292S16.137 3.018 17.562 2.994H17.59C18.118 2.994 18.617 3.202 18.995 3.58L21.707 6.292A0.999 0.999 0 0 1 21.707 7.706L17.707 11.707zM17.58 4.995C16.332 5.016 12.062 5.351 8.707 8.707C5.341 12.073 5.015 16.358 4.995 17.581L7 19.586L9.586 17L8.293 15.707A1 1 0 0 1 8.021 14.795C8.045 14.68 8.632 11.953 10.292 10.293S14.679 8.046 14.794 8.022A0.991 0.991 0 0 1 15.706 8.293L17 9.586L19.586 7L17.58 4.995z" />
    <glyph glyph-name="scenery"
      unicode="&#xEA24;"
      horiz-adv-x="24" d="M19 22H5A3 3 0 0 1 2 19V5A3 3 0 0 1 5 2H19A2.81 2.81 0 0 1 19.49 2.05L19.79 2.12L19.86 2.12H19.86L19.91 2.12L20.28 2.26L20.41 2.33C20.51 2.39 20.62 2.44 20.72 2.51A3.79 3.79 0 0 1 21.1 2.83L21.17 2.92A2.69 2.69 0 0 1 21.44 3.24L21.53 3.37A2.31 2.31 0 0 1 21.71 3.72A1 1 0 0 1 21.78 3.87C21.83 3.99 21.86 4.12 21.9 4.25L21.9 4.4A2.6 2.6 0 0 1 22 5V19A3 3 0 0 1 19 22zM5 4A1 1 0 0 0 4 5V9.31L7.29 12.61H7.29A1 1 0 0 0 8.71 12.61L17.31 4zM20 5A1 1 0 0 0 19.93 4.64A1 1 0 0 0 19.85 4.5A0.94 0.94 0 0 0 19.76 4.38L14.41 9.73L15.29 10.61A1 1 0 0 0 16.71 10.61H16.71L20 7.31zM20 10.14L18.12 12A3.08 3.08 0 0 1 13.88 12L13 11.12L10.12 14A3.08 3.08 0 0 1 5.88 14L4 12.14V19A1 1 0 0 0 5 20H19A1 1 0 0 0 20 19zM13.5 18A1.5 1.5 0 1 1 15 16.5A1.5 1.5 0 0 1 13.5 18z" />
    <glyph glyph-name="send"
      unicode="&#xEA25;"
      horiz-adv-x="24" d="M14.22 2.065C13.04 2.065 11.37 2.895 10.05 6.865L9.33 9.025L7.17 9.745C3.21 11.065 2.38 12.735 2.38 13.915C2.38 15.085 3.21 16.765 7.17 18.095L15.66 20.925C17.78 21.635 19.55 21.425 20.64 20.345C21.73 19.265 21.94 17.485 21.23 15.365L18.4 6.875C17.07 2.895 15.4 2.065 14.22 2.065zM7.64 16.665C4.86 15.735 3.87 14.635 3.87 13.915C3.87 13.195 4.86 12.095 7.64 11.175L10.16 10.335C10.38 10.265 10.56 10.085 10.63 9.865L11.47 7.345C12.39 4.565 13.5 3.575 14.22 3.575C14.94 3.575 16.04 4.565 16.97 7.345L19.8 15.835C20.31 17.375 20.22 18.635 19.57 19.285C18.92 19.935 17.66 20.015 16.13 19.505L7.64 16.665zM10.11 9.295C9.92 9.295 9.73 9.365 9.58 9.515A0.754 0.754 0 0 0 9.58 10.575L13.16 14.165C13.45 14.455 13.93 14.455 14.22 14.165C14.51 13.875 14.51 13.395 14.22 13.105L10.64 9.515C10.5 9.365 10.3 9.295 10.11 9.295z" />
    <glyph glyph-name="support"
      unicode="&#xEA26;"
      horiz-adv-x="24" d="M12 22C6.486 22 2 17.514 2 12V7.857C2 6.833 2.897 6 4 6H5A1 1 0 0 1 6 7V12.143A1 1 0 0 1 5 13.143H4.092C4.648 17.013 7.978 20 12 20S19.352 17.013 19.908 13.143H19A1 1 0 0 1 18 12.143V6C18 4.897 17.103 4 16 4H14V5H10V2H16C18.206 2 20 3.794 20 6C21.103 6 22 6.833 22 7.857V12C22 17.514 17.514 22 12 22z" />
    <glyph glyph-name="tiktok"
      unicode="&#xEA27;"
      horiz-adv-x="24" d="M19.59 17.31A4.83 4.83 0 0 0 15.82 21.56V22H12.37V8.33A2.89 2.89 0 0 0 7.17 6.59A2.89 2.89 0 0 0 9.48 11.23A2.93 2.93 0 0 0 10.36 11.1V14.6A6.84 6.84 0 0 1 9.36 14.65A6.33 6.33 0 0 1 5 3.9A6.34 6.34 0 0 1 15.86 8.33V15.33A8.16 8.16 0 0 1 20.63 13.81V17.21A4.85 4.85 0 0 0 19.63 17.31z" />
    <glyph glyph-name="times"
      unicode="&#xEA28;"
      horiz-adv-x="24" d="M13.41 12L17.71 16.29A1 1 0 1 1 16.29 17.71L12 13.41L7.71 17.71A1 1 0 0 1 6.29 16.29L10.59 12L6.29 7.71A1 1 0 0 1 6.29 6.29A1 1 0 0 1 7.71 6.29L12 10.59L16.29 6.29A1 1 0 0 1 17.71 6.29A1 1 0 0 1 17.71 7.71z" />
    <glyph glyph-name="top-arrow-to-top"
      unicode="&#xEA29;"
      horiz-adv-x="24" d="M12.71 17.71A1 1 0 0 1 12.38 17.92A1 1 0 0 1 11.62 17.92A1 1 0 0 1 11.29 17.71L7.29 13.71A1 1 0 1 1 8.71 12.29L11 14.59V3A1 1 0 0 1 13 3V14.59L15.29 12.29A1 1 0 0 1 16.71 12.29A1 1 0 0 1 16.71 13.71zM19 22H5A1 1 0 0 1 5 20H19A1 1 0 0 1 19 22z" />
    <glyph glyph-name="universal-access"
      unicode="&#xEA2A;"
      horiz-adv-x="512" d="M391.078 318.594C387.4220000000001 331.344 374.109 338.844 361.406 335.062L302.156 318.125C271.99 309.502 240.01 309.502 209.844 318.125L150.594 335.062C137.891 338.812 124.562 331.344 120.922 318.594S124.656 292.562 137.406 288.938L196.656 271.969C200.395 270.904 204.215 270.363 208 269.576V223.281L177.359 135.938C172.969 123.438 179.547 109.75 192.047 105.344C194.688 104.438 197.359 104 200 104C209.906 104 219.188 110.188 222.641 120.062L248.486 190.713C251.049 197.715 260.951 197.715 263.514 190.713L289.359 120.062C292.812 110.188 302.094 104 312 104C314.641 104 317.312 104.438 319.953 105.344C332.453 109.75 339.031 123.438 334.641 135.938L304 223.281V269.598C307.783 270.385 311.6070000000001 270.928 315.344 272L374.594 288.938C387.344 292.562 394.719 305.844 391.078 318.594zM256 336C278.092 336 296 353.908 296 376S278.092 416 256 416S216 398.092 216 376S233.908 336 256 336zM256 496C123.42 496 16 388.582 16 256C16 123.42 123.42 16 256 16S496 123.42 496 256C496 388.582 388.58 496 256 496zM256 64C150.131 64 64 150.131 64 256S150.131 448 256 448S448 361.8690000000001 448 256S361.8690000000001 64 256 64z" />
    <glyph glyph-name="user"
      unicode="&#xEA2B;"
      horiz-adv-x="24" d="M15.71 11.29A6 6 0 1 1 8.29 11.29A10 10 0 0 1 2.07 3.11A1 1 0 0 1 4.07 2.89A8 8 0 0 0 19.97 2.89A1 1 0 0 1 20.97 2H21.08A1 1 0 0 1 21.96 3.1A10 10 0 0 1 15.71 11.29zM12 12A4 4 0 1 0 16 16A4 4 0 0 0 12 12z" />
    <glyph glyph-name="web-grid"
      unicode="&#xEA2C;"
      horiz-adv-x="24" d="M21 22H3A1 1 0 0 1 2 21V3A1 1 0 0 1 3 2H21A1 1 0 0 1 22 3V21A1 1 0 0 1 21 22zM14 4H4V11H14zM14 13H4V20H14zM20 4H16V20H20z" />
  </font>
</defs>
</svg>
