<svg xmlns="http://www.w3.org/2000/svg" xmlns:xlink="http://www.w3.org/1999/xlink" width="0" height="0" style="display:none;"><symbol viewBox="0 0 24 24" id="dg-apps"><path fill="currentColor" d="M10 13H3a1 1 0 0 0-1 1v7a1 1 0 0 0 1 1h7a1 1 0 0 0 1-1v-7a1 1 0 0 0-1-1Zm-1 7H4v-5h5ZM21 2h-7a1 1 0 0 0-1 1v7a1 1 0 0 0 1 1h7a1 1 0 0 0 1-1V3a1 1 0 0 0-1-1Zm-1 7h-5V4h5Zm1 4h-7a1 1 0 0 0-1 1v7a1 1 0 0 0 1 1h7a1 1 0 0 0 1-1v-7a1 1 0 0 0-1-1Zm-1 7h-5v-5h5ZM10 2H3a1 1 0 0 0-1 1v7a1 1 0 0 0 1 1h7a1 1 0 0 0 1-1V3a1 1 0 0 0-1-1ZM9 9H4V4h5Z"></path></symbol><symbol viewBox="0 0 24 24" id="dg-arrow-down-left"><path fill="currentColor" d="M17,16H9.41l8.3-8.29a1,1,0,1,0-1.42-1.42L8,14.59V7A1,1,0,0,0,6,7V17a1,1,0,0,0,.08.38,1,1,0,0,0,.54.54A1,1,0,0,0,7,18H17a1,1,0,0,0,0-2Z"></path></symbol><symbol viewBox="0 0 24 24" id="dg-arrow-down-right"><path fill="currentColor" d="M17,6a1,1,0,0,0-1,1v7.59L7.71,6.29A1,1,0,0,0,6.29,7.71L14.59,16H7a1,1,0,0,0,0,2H17a1,1,0,0,0,.38-.08,1,1,0,0,0,.54-.54A1,1,0,0,0,18,17V7A1,1,0,0,0,17,6Z"></path></symbol><symbol viewBox="0 0 24 24" id="dg-arrow-down"><path fill="currentColor" d="M17.71,11.29a1,1,0,0,0-1.42,0L13,14.59V7a1,1,0,0,0-2,0v7.59l-3.29-3.3a1,1,0,0,0-1.42,1.42l5,5a1,1,0,0,0,.33.21.94.94,0,0,0,.76,0,1,1,0,0,0,.33-.21l5-5A1,1,0,0,0,17.71,11.29Z"></path></symbol><symbol viewBox="0 0 24 24" id="dg-arrow-left"><path fill="currentColor" d="M17,11H9.41l3.3-3.29a1,1,0,1,0-1.42-1.42l-5,5a1,1,0,0,0-.21.33,1,1,0,0,0,0,.76,1,1,0,0,0,.21.33l5,5a1,1,0,0,0,1.42,0,1,1,0,0,0,0-1.42L9.41,13H17a1,1,0,0,0,0-2Z"></path></symbol><symbol viewBox="0 0 24 24" id="dg-arrow-right"><path fill="currentColor" d="M17.92,11.62a1,1,0,0,0-.21-.33l-5-5a1,1,0,0,0-1.42,1.42L14.59,11H7a1,1,0,0,0,0,2h7.59l-3.3,3.29a1,1,0,0,0,0,1.42,1,1,0,0,0,1.42,0l5-5a1,1,0,0,0,.21-.33A1,1,0,0,0,17.92,11.62Z"></path></symbol><symbol viewBox="0 0 24 24" id="dg-arrow-up-left"><path fill="currentColor" d="M9.41,8H17a1,1,0,0,0,0-2H7a1,1,0,0,0-.38.08,1,1,0,0,0-.54.54A1,1,0,0,0,6,7V17a1,1,0,0,0,2,0V9.41l8.29,8.3a1,1,0,0,0,1.42,0,1,1,0,0,0,0-1.42Z"></path></symbol><symbol viewBox="0 0 24 24" id="dg-arrow-up-right"><path fill="currentColor" d="M17.92,6.62a1,1,0,0,0-.54-.54A1,1,0,0,0,17,6H7A1,1,0,0,0,7,8h7.59l-8.3,8.29a1,1,0,0,0,0,1.42,1,1,0,0,0,1.42,0L16,9.41V17a1,1,0,0,0,2,0V7A1,1,0,0,0,17.92,6.62Z"></path></symbol><symbol viewBox="0 0 24 24" id="dg-arrow-up"><path fill="currentColor" d="M17.71,11.29l-5-5a1,1,0,0,0-.33-.21,1,1,0,0,0-.76,0,1,1,0,0,0-.33.21l-5,5a1,1,0,0,0,1.42,1.42L11,9.41V17a1,1,0,0,0,2,0V9.41l3.29,3.3a1,1,0,0,0,1.42,0A1,1,0,0,0,17.71,11.29Z"></path></symbol><symbol viewBox="0 0 24 24" id="dg-award"><path d="M5 8.999c0 1.902.765 3.627 2 4.89V21a.998.998 0 0 0 1.447.895L12 20.118l3.553 1.776a.992.992 0 0 0 .972-.043c.295-.183.475-.504.475-.851v-7.11a6.976 6.976 0 0 0 2-4.891C19 5.14 15.86 2 12 2S5 5.14 5 8.999zm7.447 9.106a1 1 0 0 0-.895 0L9 19.382v-4.067c.911.434 1.926.685 3 .685s2.089-.25 3-.685v4.066l-2.553-1.276zM12 4c2.756 0 5 2.242 5 4.999A5.006 5.006 0 0 1 12 14c-2.757 0-5-2.243-5-5.001A5.005 5.005 0 0 1 12 4z"></path></symbol><symbol viewBox="0 0 24 24" id="dg-badge-check"><path d="M4.035 15.479A3.976 3.976 0 0 0 4 16c0 2.378 2.138 4.284 4.521 3.964C9.214 21.198 10.534 22 12 22s2.786-.802 3.479-2.036C17.857 20.284 20 18.378 20 16c0-.173-.012-.347-.035-.521C21.198 14.786 22 13.465 22 12s-.802-2.786-2.035-3.479C19.988 8.347 20 8.173 20 8c0-2.378-2.143-4.288-4.521-3.964C14.786 2.802 13.466 2 12 2s-2.786.802-3.479 2.036C6.138 3.712 4 5.622 4 8c0 .173.012.347.035.521C2.802 9.214 2 10.535 2 12s.802 2.786 2.035 3.479zm1.442-5.403 1.102-.293-.434-1.053A1.932 1.932 0 0 1 6 8c0-1.103.897-2 2-2 .247 0 .499.05.73.145l1.054.434.293-1.102a1.99 1.99 0 0 1 3.846 0l.293 1.102 1.054-.434C15.501 6.05 15.753 6 16 6c1.103 0 2 .897 2 2 0 .247-.05.5-.145.73l-.434 1.053 1.102.293a1.993 1.993 0 0 1 0 3.848l-1.102.293.434 1.053c.095.23.145.483.145.73 0 1.103-.897 2-2 2-.247 0-.499-.05-.73-.145l-1.054-.434-.293 1.102a1.99 1.99 0 0 1-3.846 0l-.293-1.102-1.054.434A1.935 1.935 0 0 1 8 18c-1.103 0-2-.897-2-2 0-.247.05-.5.145-.73l.434-1.053-1.102-.293a1.993 1.993 0 0 1 0-3.848z"></path><path d="m15.742 10.71-1.408-1.42-3.331 3.299-1.296-1.296-1.414 1.414 2.704 2.704z"></path></symbol><symbol viewBox="0 0 24 24" id="dg-briefcase-alt"><path fill="currentColor" d="M19,6.5H16v-1a3,3,0,0,0-3-3H11a3,3,0,0,0-3,3v1H5a3,3,0,0,0-3,3v9a3,3,0,0,0,3,3H19a3,3,0,0,0,3-3v-9A3,3,0,0,0,19,6.5Zm-9-1a1,1,0,0,1,1-1h2a1,1,0,0,1,1,1v1H10Zm10,13a1,1,0,0,1-1,1H5a1,1,0,0,1-1-1V13a21.27,21.27,0,0,0,3,.94v.59a1,1,0,0,0,2,0v-.21a23,23,0,0,0,3,.21,23,23,0,0,0,3-.21v.21a1,1,0,0,0,2,0v-.59A21.27,21.27,0,0,0,20,13Zm0-7.69a20.39,20.39,0,0,1-3,1V11.5a1,1,0,0,0-2,0v.74a20.11,20.11,0,0,1-6,0V11.5a1,1,0,0,0-2,0v.33a20.39,20.39,0,0,1-3-1V9.5a1,1,0,0,1,1-1H19a1,1,0,0,1,1,1Z"></path></symbol><symbol viewBox="0 0 24 24" id="dg-calendar-alt"><path fill="currentColor" d="M12,19a1,1,0,1,0-1-1A1,1,0,0,0,12,19Zm5,0a1,1,0,1,0-1-1A1,1,0,0,0,17,19Zm0-4a1,1,0,1,0-1-1A1,1,0,0,0,17,15Zm-5,0a1,1,0,1,0-1-1A1,1,0,0,0,12,15ZM19,3H18V2a1,1,0,0,0-2,0V3H8V2A1,1,0,0,0,6,2V3H5A3,3,0,0,0,2,6V20a3,3,0,0,0,3,3H19a3,3,0,0,0,3-3V6A3,3,0,0,0,19,3Zm1,17a1,1,0,0,1-1,1H5a1,1,0,0,1-1-1V11H20ZM20,9H4V6A1,1,0,0,1,5,5H6V6A1,1,0,0,0,8,6V5h8V6a1,1,0,0,0,2,0V5h1a1,1,0,0,1,1,1ZM7,15a1,1,0,1,0-1-1A1,1,0,0,0,7,15Zm0,4a1,1,0,1,0-1-1A1,1,0,0,0,7,19Z"></path></symbol><symbol viewBox="0 0 24 24" id="dg-ellipsis-h"><path fill="currentColor" d="M12,10a2,2,0,1,0,2,2A2,2,0,0,0,12,10ZM5,10a2,2,0,1,0,2,2A2,2,0,0,0,5,10Zm14,0a2,2,0,1,0,2,2A2,2,0,0,0,19,10Z"></path></symbol><symbol viewBox="0 0 24 24" id="dg-ellipsis-v"><path fill="currentColor" d="M12,7a2,2,0,1,0-2-2A2,2,0,0,0,12,7Zm0,10a2,2,0,1,0,2,2A2,2,0,0,0,12,17Zm0-7a2,2,0,1,0,2,2A2,2,0,0,0,12,10Z"></path></symbol><symbol viewBox="0 0 24 24" id="dg-estate"><path fill="currentColor" d="M20,8h0L14,2.74a3,3,0,0,0-4,0L4,8a3,3,0,0,0-1,2.26V19a3,3,0,0,0,3,3H18a3,3,0,0,0,3-3V10.25A3,3,0,0,0,20,8ZM14,20H10V15a1,1,0,0,1,1-1h2a1,1,0,0,1,1,1Zm5-1a1,1,0,0,1-1,1H16V15a3,3,0,0,0-3-3H11a3,3,0,0,0-3,3v5H6a1,1,0,0,1-1-1V10.25a1,1,0,0,1,.34-.75l6-5.25a1,1,0,0,1,1.32,0l6,5.25a1,1,0,0,1,.34.75Z"></path></symbol><symbol viewBox="0 0 24 24" id="dg-export"><path fill="currentColor" d="M8.71,7.71,11,5.41V15a1,1,0,0,0,2,0V5.41l2.29,2.3a1,1,0,0,0,1.42,0,1,1,0,0,0,0-1.42l-4-4a1,1,0,0,0-.33-.21,1,1,0,0,0-.76,0,1,1,0,0,0-.33.21l-4,4A1,1,0,1,0,8.71,7.71ZM21,14a1,1,0,0,0-1,1v4a1,1,0,0,1-1,1H5a1,1,0,0,1-1-1V15a1,1,0,0,0-2,0v4a3,3,0,0,0,3,3H19a3,3,0,0,0,3-3V15A1,1,0,0,0,21,14Z"></path></symbol><symbol viewBox="0 0 24 24" id="dg-facebook-f"><path fill="currentColor" d="M15.12,5.32H17V2.14A26.11,26.11,0,0,0,14.26,2C11.54,2,9.68,3.66,9.68,6.7V9.32H6.61v3.56H9.68V22h3.68V12.88h3.06l.46-3.56H13.36V7.05C13.36,6,13.64,5.32,15.12,5.32Z"></path></symbol><symbol viewBox="0 0 24 24" id="dg-facebook"><path d="M13.397 20.997v-8.196h2.765l.411-3.209h-3.176V7.548c0-.926.258-1.56 1.587-1.56h1.684V3.127A22.336 22.336 0 0 0 14.201 3c-2.444 0-4.122 1.492-4.122 4.231v2.355H7.332v3.209h2.753v8.202h3.312z"></path></symbol><symbol viewBox="0 0 24 24" id="dg-file-alt"><path fill="currentColor" d="M9,10h1a1,1,0,0,0,0-2H9a1,1,0,0,0,0,2Zm0,2a1,1,0,0,0,0,2h6a1,1,0,0,0,0-2ZM20,8.94a1.31,1.31,0,0,0-.06-.27l0-.09a1.07,1.07,0,0,0-.19-.28h0l-6-6h0a1.07,1.07,0,0,0-.28-.19.32.32,0,0,0-.09,0A.88.88,0,0,0,13.05,2H7A3,3,0,0,0,4,5V19a3,3,0,0,0,3,3H17a3,3,0,0,0,3-3V9S20,9,20,8.94ZM14,5.41,16.59,8H15a1,1,0,0,1-1-1ZM18,19a1,1,0,0,1-1,1H7a1,1,0,0,1-1-1V5A1,1,0,0,1,7,4h5V7a3,3,0,0,0,3,3h3Zm-3-3H9a1,1,0,0,0,0,2h6a1,1,0,0,0,0-2Z"></path></symbol><symbol id="dg-files"><path d="M15.25 22.75h-6c-5.43 0-7.75-2.32-7.75-7.75V9c0-5.43 2.32-7.75 7.75-7.75h5c.41 0 .75.34.75.75s-.34.75-.75.75h-5C4.64 2.75 3 4.39 3 9v6c0 4.61 1.64 6.25 6.25 6.25h6c4.61 0 6.25-1.64 6.25-6.25v-5c0-.41.34-.75.75-.75s.75.34.75.75v5c0 5.43-2.32 7.75-7.75 7.75Z"></path><path d="M22.25 10.75h-4c-3.42 0-4.75-1.33-4.75-4.75V2c0-.3.18-.58.46-.69.28-.12.6-.05.82.16l8 8a.751.751 0 0 1-.53 1.28ZM15 3.81V6c0 2.58.67 3.25 3.25 3.25h2.19L15 3.81ZM13.25 13.75h-6c-.41 0-.75-.34-.75-.75s.34-.75.75-.75h6c.41 0 .75.34.75.75s-.34.75-.75.75ZM11.25 17.75h-4c-.41 0-.75-.34-.75-.75s.34-.75.75-.75h4c.41 0 .75.34.75.75s-.34.75-.75.75Z"></path></symbol><symbol viewBox="0 0 24 24" id="dg-github-alt"><path fill="currentColor" d="M10.07031,20.50291a1.00008,1.00008,0,0,0-1.18115-.9834c-1.30908.24024-2.96191.27637-3.40137-.958a5.70754,5.70754,0,0,0-1.83691-2.415,1.20073,1.20073,0,0,1-.1665-.10938,1,1,0,0,0-.93067-.64551H2.54883a.99965.99965,0,0,0-1,.99512c-.00391.81543.811,1.33789,1.1416,1.51465a4.4408,4.4408,0,0,1,.92383,1.35937c.36426,1.02344,1.42285,2.57617,4.46582,2.376.001.03516.00195.06836.00244.09863l.00439.26758a1,1,0,0,0,2,0l-.00488-.31836C10.07715,21.4951,10.07031,21.22068,10.07031,20.50291Zm10.667-15.126c.03174-.125.063-.26367.09034-.41992a6.27792,6.27792,0,0,0-.40821-3.293,1.002,1.002,0,0,0-.61572-.58007c-.356-.12012-1.67041-.35645-4.18408,1.25a13.86918,13.86918,0,0,0-6.354,0C6.76221.751,5.45459.9658,5.10205,1.07908a.99744.99744,0,0,0-.63135.584,6.3003,6.3003,0,0,0-.40332,3.35644c.02442.12793.05078.2461.07813.35449A6.26928,6.26928,0,0,0,2.89014,9.20311a8.42168,8.42168,0,0,0,.04248.92187c.334,4.60254,3.334,5.98438,5.42431,6.459-.04345.125-.083.25878-.11816.40039a1.00023,1.00023,0,0,0,1.94238.47851,1.6784,1.6784,0,0,1,.46778-.87793.99947.99947,0,0,0-.5459-1.74512c-3.4541-.39453-4.95362-1.80175-5.1792-4.89843a6.61076,6.61076,0,0,1-.03369-.73828,4.25769,4.25769,0,0,1,.91943-2.71289,3.022,3.022,0,0,1,.1958-.23145.99988.99988,0,0,0,.188-1.02441,3.3876,3.3876,0,0,1-.15527-.55567A4.09356,4.09356,0,0,1,6.1167,3.06346a7.54263,7.54263,0,0,1,2.415,1.17968,1.00877,1.00877,0,0,0,.82764.13282,11.77716,11.77716,0,0,1,6.17285.001,1.00549,1.00549,0,0,0,.83056-.13769,7.572,7.572,0,0,1,2.40528-1.19043,4.03977,4.03977,0,0,1,.0874,1.57812,3.205,3.205,0,0,1-.16895.60743.9999.9999,0,0,0,.188,1.02441c.07715.08691.1543.18066.22363.26855A4.12186,4.12186,0,0,1,20,9.20311a7.03888,7.03888,0,0,1-.0376.77734c-.22021,3.05566-1.72558,4.46387-5.1958,4.85937a1,1,0,0,0-.54541,1.7461,1.63079,1.63079,0,0,1,.46631.9082,3.06079,3.06079,0,0,1,.09229.81934v2.334C14.77,21.2949,14.77,21.78025,14.77,22.00291a1,1,0,1,0,2,0c0-.2168,0-.69238.00977-1.33984V18.31346a4.8815,4.8815,0,0,0-.15479-1.31153,4.25638,4.25638,0,0,0-.11621-.416,6.51258,6.51258,0,0,0,5.44531-6.42383A8.69677,8.69677,0,0,0,22,9.20311,6.13062,6.13062,0,0,0,20.7373,5.37693Z"></path></symbol><symbol viewBox="0 0 24 24" id="dg-graduation-cap"><path fill="currentColor" d="M21.49,10.19l-1-.55h0l-9-5-.11,0a1.06,1.06,0,0,0-.19-.06l-.19,0-.18,0a1.17,1.17,0,0,0-.2.06l-.11,0-9,5a1,1,0,0,0,0,1.74L4,12.76V17.5a3,3,0,0,0,3,3h8a3,3,0,0,0,3-3V12.76l2-1.12V14.5a1,1,0,0,0,2,0V11.06A1,1,0,0,0,21.49,10.19ZM16,17.5a1,1,0,0,1-1,1H7a1,1,0,0,1-1-1V13.87l4.51,2.5.15.06.09,0a1,1,0,0,0,.25,0h0a1,1,0,0,0,.25,0l.09,0a.47.47,0,0,0,.15-.06L16,13.87Zm-5-3.14L4.06,10.5,11,6.64l6.94,3.86Z"></path></symbol><symbol viewBox="0 0 24 24" id="dg-instagram"><path d="M11.999 7.377a4.623 4.623 0 1 0 0 9.248 4.623 4.623 0 0 0 0-9.248zm0 7.627a3.004 3.004 0 1 1 0-6.008 3.004 3.004 0 0 1 0 6.008z"></path><circle cx="16.806" cy="7.207" r="1.078"></circle><path d="M20.533 6.111A4.605 4.605 0 0 0 17.9 3.479a6.606 6.606 0 0 0-2.186-.42c-.963-.042-1.268-.054-3.71-.054s-2.755 0-3.71.054a6.554 6.554 0 0 0-2.184.42 4.6 4.6 0 0 0-2.633 2.632 6.585 6.585 0 0 0-.419 2.186c-.043.962-.056 1.267-.056 3.71 0 2.442 0 2.753.056 3.71.015.748.156 1.486.419 2.187a4.61 4.61 0 0 0 2.634 2.632 6.584 6.584 0 0 0 2.185.45c.963.042 1.268.055 3.71.055s2.755 0 3.71-.055a6.615 6.615 0 0 0 2.186-.419 4.613 4.613 0 0 0 2.633-2.633c.263-.7.404-1.438.419-2.186.043-.962.056-1.267.056-3.71s0-2.753-.056-3.71a6.581 6.581 0 0 0-.421-2.217zm-1.218 9.532a5.043 5.043 0 0 1-.311 1.688 2.987 2.987 0 0 1-1.712 1.711 4.985 4.985 0 0 1-1.67.311c-.95.044-1.218.055-3.654.055-2.438 0-2.687 0-3.655-.055a4.96 4.96 0 0 1-1.669-.311 2.985 2.985 0 0 1-1.719-1.711 5.08 5.08 0 0 1-.311-1.669c-.043-.95-.053-1.218-.053-3.654 0-2.437 0-2.686.053-3.655a5.038 5.038 0 0 1 .311-1.687c.305-.789.93-1.41 1.719-1.712a5.01 5.01 0 0 1 1.669-.311c.951-.043 1.218-.055 3.655-.055s2.687 0 3.654.055a4.96 4.96 0 0 1 1.67.311 2.991 2.991 0 0 1 1.712 1.712 5.08 5.08 0 0 1 .311 1.669c.043.951.054 1.218.054 3.655 0 2.436 0 2.698-.043 3.654h-.011z"></path></symbol><symbol viewBox="0 0 24 24" id="dg-linkedin-alt"><path fill="currentColor" d="M17.5,8.999a5.41868,5.41868,0,0,0-2.56543.64453A.99918.99918,0,0,0,14,8.999H10a.99943.99943,0,0,0-1,1v12a.99942.99942,0,0,0,1,1h4a.99942.99942,0,0,0,1-1v-5.5a1,1,0,1,1,2,0v5.5a.99942.99942,0,0,0,1,1h4a.99942.99942,0,0,0,1-1v-7.5A5.50685,5.50685,0,0,0,17.5,8.999Zm3.5,12H19v-4.5a3,3,0,1,0-6,0v4.5H11v-10h2v.70313a1.00048,1.00048,0,0,0,1.78125.625A3.48258,3.48258,0,0,1,21,14.499Zm-14-12H3a.99943.99943,0,0,0-1,1v12a.99942.99942,0,0,0,1,1H7a.99942.99942,0,0,0,1-1v-12A.99943.99943,0,0,0,7,8.999Zm-1,12H4v-10H6ZM5.01465,1.542A3.23283,3.23283,0,1,0,4.958,7.999h.02832a3.23341,3.23341,0,1,0,.02832-6.457ZM4.98633,5.999H4.958A1.22193,1.22193,0,0,1,3.58887,4.77051c0-.7461.55957-1.22852,1.42578-1.22852A1.2335,1.2335,0,0,1,6.41113,4.77051C6.41113,5.5166,5.85156,5.999,4.98633,5.999Z"></path></symbol><symbol viewBox="0 0 488.98 488.98" id="dg-logo"><path d="M489.1 244.62c0 135-109.46 244.49-244.49 244.49S.12 379.65.12 244.62 109.58.13 244.61.13 489.1 109.59 489.1 244.62Zm-93.88 150.61c83.19-83.18 83.19-218 0-301.23S177.18 10.82 94 94a213 213 0 0 0-62.4 150.63c0 117.63 95.37 213 213 213a211.55 211.55 0 0 0 150.62-62.4ZM257.43 150.87c32.68 0 61.2 20 74.73 49.73a92.21 92.21 0 0 1 7.84 28.67h29.71v-.22l-.05-.52a121.66 121.66 0 0 0-5.82-27.93 118.77 118.77 0 0 0-30.17-48c-20.86-20.11-47.91-31.19-76.19-31.19h-75.61v245.12h75.57c28.27 0 55.32-11.07 76.17-31.17a118.72 118.72 0 0 0 30.05-47.71 121.84 121.84 0 0 0 5.85-27.74V259h-93.58v28.62h56c-13.57 29.48-42 49.34-74.56 49.34h-46V150.91Z" style="fill:currentColor" transform="translate(-.12 -.13)"></path></symbol><symbol viewBox="0 0 24 24" id="dg-mail-send"><path d="M20 4H6c-1.103 0-2 .897-2 2v5h2V8l6.4 4.8a1.001 1.001 0 0 0 1.2 0L20 8v9h-8v2h8c1.103 0 2-.897 2-2V6c0-1.103-.897-2-2-2zm-7 6.75L6.666 6h12.668L13 10.75z"></path><path d="M2 12h7v2H2zm2 3h6v2H4zm3 3h4v2H7z"></path></symbol><symbol viewBox="0 0 24 24" id="dg-message"><path fill="currentColor" d="M20.34,9.32l-14-7a3,3,0,0,0-4.08,3.9l2.4,5.37h0a1.06,1.06,0,0,1,0,.82l-2.4,5.37A3,3,0,0,0,5,22a3.14,3.14,0,0,0,1.35-.32l14-7a3,3,0,0,0,0-5.36Zm-.89,3.57-14,7a1,1,0,0,1-1.35-1.3l2.39-5.37A2,2,0,0,0,6.57,13h6.89a1,1,0,0,0,0-2H6.57a2,2,0,0,0-.08-.22L4.1,5.41a1,1,0,0,1,1.35-1.3l14,7a1,1,0,0,1,0,1.78Z"></path></symbol><symbol viewBox="0 0 24 24" id="dg-messenger"><path d="M12 3c-4.92 0-8.91 3.729-8.91 8.332 0 2.616 1.291 4.952 3.311 6.479V21l3.041-1.687c.811.228 1.668.35 2.559.35 4.92 0 8.91-3.73 8.91-8.331C20.91 6.729 16.92 3 12 3zm.938 11.172-2.305-2.394-4.438 2.454 4.865-5.163 2.305 2.395 4.439-2.455-4.866 5.163z"></path></symbol><symbol viewBox="0 0 24 24" id="dg-phone"><path d="M17.707 12.293a.999.999 0 0 0-1.414 0l-1.594 1.594c-.739-.22-2.118-.72-2.992-1.594s-1.374-2.253-1.594-2.992l1.594-1.594a.999.999 0 0 0 0-1.414l-4-4a.999.999 0 0 0-1.414 0L3.581 5.005c-.38.38-.594.902-.586 1.435.023 1.424.4 6.37 4.298 10.268s8.844 4.274 10.269 4.298h.028c.528 0 1.027-.208 1.405-.586l2.712-2.712a.999.999 0 0 0 0-1.414l-4-4.001zm-.127 6.712c-1.248-.021-5.518-.356-8.873-3.712-3.366-3.366-3.692-7.651-3.712-8.874L7 4.414 9.586 7 8.293 8.293a1 1 0 0 0-.272.912c.024.115.611 2.842 2.271 4.502s4.387 2.247 4.502 2.271a.991.991 0 0 0 .912-.271L17 14.414 19.586 17l-2.006 2.005z"></path></symbol><symbol viewBox="0 0 24 24" id="dg-scenery"><path fill="currentColor" d="M19,2H5A3,3,0,0,0,2,5V19a3,3,0,0,0,3,3H19a2.81,2.81,0,0,0,.49-.05l.3-.07.07,0h0l.05,0,.37-.14.13-.07c.1-.06.21-.11.31-.18a3.79,3.79,0,0,0,.38-.32l.07-.09a2.69,2.69,0,0,0,.27-.32l.09-.13a2.31,2.31,0,0,0,.18-.35,1,1,0,0,0,.07-.15c.05-.12.08-.25.12-.38l0-.15A2.6,2.6,0,0,0,22,19V5A3,3,0,0,0,19,2ZM5,20a1,1,0,0,1-1-1V14.69l3.29-3.3h0a1,1,0,0,1,1.42,0L17.31,20Zm15-1a1,1,0,0,1-.07.36,1,1,0,0,1-.08.14.94.94,0,0,1-.09.12l-5.35-5.35.88-.88a1,1,0,0,1,1.42,0h0L20,16.69Zm0-5.14L18.12,12a3.08,3.08,0,0,0-4.24,0l-.88.88L10.12,10a3.08,3.08,0,0,0-4.24,0L4,11.86V5A1,1,0,0,1,5,4H19a1,1,0,0,1,1,1ZM13.5,6A1.5,1.5,0,1,0,15,7.5,1.5,1.5,0,0,0,13.5,6Z"></path></symbol><symbol id="dg-send"><path d="M14.22 21.935c-1.18 0-2.85-.83-4.17-4.8l-.72-2.16-2.16-.72c-3.96-1.32-4.79-2.99-4.79-4.17 0-1.17.83-2.85 4.79-4.18l8.49-2.83c2.12-.71 3.89-.5 4.98.58 1.09 1.08 1.3 2.86.59 4.98l-2.83 8.49c-1.33 3.98-3 4.81-4.18 4.81Zm-6.58-14.6c-2.78.93-3.77 2.03-3.77 2.75 0 .72.99 1.82 3.77 2.74l2.52.84c.22.07.4.25.47.47l.84 2.52c.92 2.78 2.03 3.77 2.75 3.77.72 0 1.82-.99 2.75-3.77l2.83-8.49c.51-1.54.42-2.8-.23-3.45-.65-.65-1.91-.73-3.44-.22l-8.49 2.84Z"></path><path d="M10.11 14.705c-.19 0-.38-.07-.53-.22a.754.754 0 0 1 0-1.06l3.58-3.59c.29-.29.77-.29 1.06 0 .29.29.29.77 0 1.06l-3.58 3.59c-.14.15-.34.22-.53.22Z"></path></symbol><symbol viewBox="0 0 24 24" id="dg-support"><path d="M12 2C6.486 2 2 6.486 2 12v4.143C2 17.167 2.897 18 4 18h1a1 1 0 0 0 1-1v-5.143a1 1 0 0 0-1-1h-.908C4.648 6.987 7.978 4 12 4s7.352 2.987 7.908 6.857H19a1 1 0 0 0-1 1V18c0 1.103-.897 2-2 2h-2v-1h-4v3h6c2.206 0 4-1.794 4-4 1.103 0 2-.833 2-1.857V12c0-5.514-4.486-10-10-10z"></path></symbol><symbol viewBox="0 0 24 24" id="dg-tiktok"><path d="M19.59 6.69a4.83 4.83 0 0 1-3.77-4.25V2h-3.45v13.67a2.89 2.89 0 0 1-5.2 1.74 2.89 2.89 0 0 1 2.31-4.64 2.93 2.93 0 0 1 .88.13V9.4a6.84 6.84 0 0 0-1-.05A6.33 6.33 0 0 0 5 20.1a6.34 6.34 0 0 0 10.86-4.43v-7a8.16 8.16 0 0 0 4.77 1.52v-3.4a4.85 4.85 0 0 1-1-.1z"></path></symbol><symbol viewBox="0 0 24 24" id="dg-times"><path fill="currentColor" d="M13.41,12l4.3-4.29a1,1,0,1,0-1.42-1.42L12,10.59,7.71,6.29A1,1,0,0,0,6.29,7.71L10.59,12l-4.3,4.29a1,1,0,0,0,0,1.42,1,1,0,0,0,1.42,0L12,13.41l4.29,4.3a1,1,0,0,0,1.42,0,1,1,0,0,0,0-1.42Z"></path></symbol><symbol viewBox="0 0 24 24" id="dg-top-arrow-to-top"><path fill="currentColor" d="M12.71,6.29a1,1,0,0,0-.33-.21,1,1,0,0,0-.76,0,1,1,0,0,0-.33.21l-4,4a1,1,0,1,0,1.42,1.42L11,9.41V21a1,1,0,0,0,2,0V9.41l2.29,2.3a1,1,0,0,0,1.42,0,1,1,0,0,0,0-1.42ZM19,2H5A1,1,0,0,0,5,4H19a1,1,0,0,0,0-2Z"></path></symbol><symbol viewBox="0 0 512 512" id="dg-universal-access"><!-- Font Awesome Pro 6.0.0-alpha2 by @fontawesome - https://fontawesome.com License - https://fontawesome.com/license (Commercial License) --><path d="M391.078 193.406C387.422 180.656 374.109 173.156 361.406 176.938L302.156 193.875C271.99 202.498 240.01 202.498 209.844 193.875L150.594 176.938C137.891 173.188 124.562 180.656 120.922 193.406S124.656 219.438 137.406 223.062L196.656 240.031C200.395 241.096 204.215 241.637 208 242.424V288.719L177.359 376.062C172.969 388.562 179.547 402.25 192.047 406.656C194.688 407.562 197.359 408 200 408C209.906 408 219.188 401.812 222.641 391.938L248.486 321.287C251.049 314.285 260.951 314.285 263.514 321.287L289.359 391.938C292.812 401.812 302.094 408 312 408C314.641 408 317.312 407.562 319.953 406.656C332.453 402.25 339.031 388.562 334.641 376.062L304 288.719V242.402C307.783 241.615 311.607 241.072 315.344 240L374.594 223.062C387.344 219.438 394.719 206.156 391.078 193.406ZM256 176C278.092 176 296 158.092 296 136S278.092 96 256 96S216 113.908 216 136S233.908 176 256 176ZM256 16C123.42 16 16 123.418 16 256C16 388.58 123.42 496 256 496S496 388.58 496 256C496 123.418 388.58 16 256 16ZM256 448C150.131 448 64 361.869 64 256S150.131 64 256 64S448 150.131 448 256S361.869 448 256 448Z"></path></symbol><symbol viewBox="0 0 24 24" id="dg-user"><path fill="currentColor" d="M15.71,12.71a6,6,0,1,0-7.42,0,10,10,0,0,0-6.22,8.18,1,1,0,0,0,2,.22,8,8,0,0,1,15.9,0,1,1,0,0,0,1,.89h.11a1,1,0,0,0,.88-1.1A10,10,0,0,0,15.71,12.71ZM12,12a4,4,0,1,1,4-4A4,4,0,0,1,12,12Z"></path></symbol></svg>